<svg viewBox="0 0 640 400" data-background-color="#ffffff" preserveAspectRatio="xMidYMid meet" height="400" width="640" xmlns="http://www.w3.org/2000/svg" xmlns:xlink="http://www.w3.org/1999/xlink"><rect width="640" height="400" x="0" y="0" opacity="1" fill="#ffffff" data-fill-palette-color="background" id="background"></rect><g id="tight-bounds" transform="matrix(1,0,0,1,122.24000000000001,169.65233159571142)"><svg viewBox="0 0 395.52 60.695336808577146" height="60.695336808577146" width="395.52"><g><svg viewBox="0 0 482.1479590664061 73.98900881650381" height="60.695336808577146" width="395.52"><g transform="matrix(1,0,0,1,86.62795906640609,10.22568790445169)"><svg viewBox="0 0 395.52 53.537633007600434" height="53.537633007600434" width="395.52"><g><svg viewBox="0 0 395.52 53.537633007600434" height="53.537633007600434" width="395.52"><g><svg viewBox="0 0 395.52 53.537633007600434" height="53.537633007600434" width="395.52"><g transform="matrix(1,0,0,1,0,0)"><svg width="395.52" viewBox="4.130000114440918 -36.040000915527344 269.79998779296875 36.53000259399414" height="53.537633007600434" data-palette-color="#332885"><path d="M8.84-35.55L8.84-3.83 25.68-3.83 25.68 0 4.13 0 4.13-35.55 8.84-35.55ZM36.06-35.55L36.06 0 31.37 0 31.37-35.55 36.06-35.55ZM71.94-35.55L71.94 0 67.23 0 49.34-27.39 49.34 0 44.62 0 44.62-35.55 49.34-35.55 67.28-8.03 67.28-35.55 71.94-35.55ZM101.9 0L89.3-16.53 84.95-12.01 84.95 0 80.27 0 80.27-35.55 84.95-35.55 84.95-17.97 100.75-35.55 106.41-35.55 92.42-19.85 107.51 0 101.9 0ZM134.46-15.84L134.46-15.84Q128.43-17.58 125.68-20.1 122.94-22.63 122.94-26.34L122.94-26.34Q122.94-30.54 126.29-33.29 129.65-36.04 135.02-36.04L135.02-36.04Q138.68-36.04 141.55-34.62 144.42-33.2 146-30.71 147.57-28.22 147.57-25.27L147.57-25.27 142.86-25.27Q142.86-28.49 140.81-30.33 138.76-32.18 135.02-32.18L135.02-32.18Q131.55-32.18 129.61-30.65 127.67-29.13 127.67-26.42L127.67-26.42Q127.67-24.24 129.52-22.74 131.36-21.24 135.79-20 140.22-18.75 142.72-17.25 145.23-15.75 146.44-13.75 147.64-11.74 147.64-9.03L147.64-9.03Q147.64-4.71 144.27-2.11 140.91 0.49 135.27 0.49L135.27 0.49Q131.6 0.49 128.43-0.92 125.26-2.32 123.53-4.76 121.81-7.2 121.81-10.3L121.81-10.3 126.53-10.3Q126.53-7.08 128.91-5.21 131.29-3.34 135.27-3.34L135.27-3.34Q138.98-3.34 140.95-4.86 142.93-6.37 142.93-8.98 142.93-11.6 141.1-13.02 139.27-14.45 134.46-15.84ZM175.08-11.28L179.79-11.28Q179.14-5.64 175.63-2.58 172.13 0.49 166.32 0.49L166.32 0.49Q160.02 0.49 156.22-4.03 152.43-8.54 152.43-16.11L152.43-16.11 152.43-19.53Q152.43-24.49 154.2-28.25 155.97-32.01 159.21-34.02 162.46-36.04 166.73-36.04L166.73-36.04Q172.4-36.04 175.82-32.87 179.23-29.71 179.79-24.12L179.79-24.12 175.08-24.12Q174.47-28.37 172.43-30.27 170.4-32.18 166.73-32.18L166.73-32.18Q162.24-32.18 159.69-28.86 157.14-25.54 157.14-19.41L157.14-19.41 157.14-15.97Q157.14-10.18 159.56-6.76 161.97-3.34 166.32-3.34L166.32-3.34Q170.22-3.34 172.31-5.11 174.4-6.88 175.08-11.28L175.08-11.28ZM213.53-18.87L213.53-16.63Q213.53-11.4 211.77-7.51 210.02-3.61 206.79-1.56 203.57 0.49 199.27 0.49L199.27 0.49Q195.08 0.49 191.83-1.57 188.58-3.64 186.79-7.46 184.99-11.28 184.94-16.31L184.94-16.31 184.94-18.87Q184.94-24 186.73-27.93 188.51-31.86 191.77-33.95 195.03-36.04 199.23-36.04L199.23-36.04Q203.5-36.04 206.76-33.97 210.02-31.91 211.77-27.99 213.53-24.07 213.53-18.87L213.53-18.87ZM208.87-16.28L208.87-18.92Q208.87-25.24 206.33-28.63 203.79-32.01 199.23-32.01L199.23-32.01Q194.78-32.01 192.23-28.63 189.68-25.24 189.61-19.24L189.61-19.24 189.61-16.63Q189.61-10.5 192.18-6.99 194.76-3.49 199.27-3.49L199.27-3.49Q203.82-3.49 206.31-6.8 208.8-10.11 208.87-16.28L208.87-16.28ZM241.31 0L233.6-14.38 225.25-14.38 225.25 0 220.54 0 220.54-35.55 232.3-35.55Q238.31-35.55 241.54-32.81 244.78-30.08 244.78-24.85L244.78-24.85Q244.78-21.53 242.99-19.07 241.19-16.6 237.99-15.38L237.99-15.38 246.34-0.29 246.34 0 241.31 0ZM225.25-31.69L225.25-18.21 232.45-18.21Q235.94-18.21 238-20.02 240.07-21.83 240.07-24.85L240.07-24.85Q240.07-28.15 238.1-29.91 236.14-31.67 232.43-31.69L232.43-31.69 225.25-31.69ZM271.44-20.26L271.44-16.43 256.03-16.43 256.03-3.83 273.93-3.83 273.93 0 251.34 0 251.34-35.55 273.68-35.55 273.68-31.69 256.03-31.69 256.03-20.26 271.44-20.26Z" opacity="1" transform="matrix(1,0,0,1,0,0)" fill="#332885" class="undefined-text-0" data-fill-palette-color="primary" id="text-0"></path></svg></g></svg></g></svg></g></svg></g><g><svg viewBox="0 0 73.98900881650381 73.98900881650381" height="73.98900881650381" width="73.98900881650381"><g><svg xmlns="http://www.w3.org/2000/svg" viewBox="1 1 64 64" xml:space="preserve" x="0" y="0" height="73.98900881650381" width="73.98900881650381" class="icon-icon-0" data-fill-palette-color="accent" id="icon-0"><path d="M64 25.6c0.6 0 1-0.4 1-1s-0.4-1-1-1h-5.5v-6.4H64c0.6 0 1-0.4 1-1s-0.4-1-1-1h-5.5v-1.4c0-3.4-2.8-6.2-6.2-6.2h-1.4V2c0-0.6-0.4-1-1-1s-1 0.4-1 1v5.5h-6.4V2c0-0.6-0.4-1-1-1s-1 0.4-1 1v5.5H34V2c0-0.6-0.4-1-1-1s-1 0.4-1 1v5.5h-6.4V2c0-0.6-0.4-1-1-1s-1 0.4-1 1v5.5h-6.4V2c0-0.6-0.4-1-1-1s-1 0.4-1 1v5.5h-1.4c-3.4 0-6.2 2.8-6.2 6.2v1.4H2c-0.6 0-1 0.4-1 1s0.4 1 1 1h5.5v6.4H2c-0.6 0-1 0.4-1 1s0.4 1 1 1h5.5V32H2c-0.6 0-1 0.4-1 1s0.4 1 1 1h5.5v6.4H2c-0.6 0-1 0.4-1 1s0.4 1 1 1h5.5v6.4H2c-0.6 0-1 0.4-1 1s0.4 1 1 1h5.5v1.4c0 3.4 2.8 6.2 6.2 6.2h1.4V64c0 0.6 0.4 1 1 1s1-0.4 1-1v-5.5h6.4V64c0 0.6 0.4 1 1 1s1-0.4 1-1v-5.5H32V64c0 0.6 0.4 1 1 1s1-0.4 1-1v-5.5h6.4V64c0 0.6 0.4 1 1 1s1-0.4 1-1v-5.5h6.4V64c0 0.6 0.4 1 1 1s1-0.4 1-1v-5.5h1.4c3.4 0 6.2-2.8 6.2-6.2v-1.4H64c0.6 0 1-0.4 1-1s-0.4-1-1-1h-5.5v-6.4H64c0.6 0 1-0.4 1-1s-0.4-1-1-1h-5.5V34H64c0.6 0 1-0.4 1-1s-0.4-1-1-1h-5.5v-6.4H64z m-7.5 26.7c0 2.3-1.9 4.2-4.2 4.2H13.7c-2.3 0-4.2-1.9-4.2-4.2V13.7c0-2.3 1.9-4.2 4.2-4.2h38.6c2.3 0 4.2 1.9 4.2 4.2v38.6z" fill="#332885" data-fill-palette-color="accent"></path><path d="M29.5 33.7c-2.2 0.6-3.4 1.5-4.1 2.1-3-1.2-4.7 0.5-4.7 0.5-0.4 0.4-0.4 1 0 1.4 0.4 0.4 1 0.4 1.4 0 0 0 1-0.9 3.2 0.2 0.5 0.2 1.1 0 1.3-0.4 0 0 0.7-1.2 3.4-1.9 0.5-0.1 0.9-0.7 0.7-1.2-0.1-0.5-0.7-0.8-1.2-0.7zM23.2 30.1s1.2 0.6 0.9 1.9c-0.3 1.3 1.6 1.8 1.9 0.5 0.6-2.3-1-3.8-2-4.2-0.5-0.2-1.1 0-1.3 0.5-0.3 0.5 0 1.1 0.5 1.3z" fill="#332885" data-fill-palette-color="accent"></path><path d="M49.7 22c-0.7-2.7-3.3-4.6-5.6-4.7-1.9-4.7-8.5-5.2-11.1-1-2.7-4.2-9.3-3.7-11.1 1-2.3 0.1-4.8 1.9-5.6 4.7-4.5 1.5-5.6 7.4-2.2 10.6-1.5 2.6-1 6 1.3 8-1.4 4.1 1.9 8.6 6.4 8.3 2 4.6 8.4 5.3 11.1 0.9 2.6 4.1 9.1 3.9 11.2-0.9 4.5 0.3 7.8-4.2 6.4-8.3 2.3-2 2.9-5.4 1.3-8 3.6-3.2 2.4-9.1-2.1-10.6zM32 46.3c0 2.4-1.9 4.3-4.3 4.3-5.8 0-5.6-8.6 0-8.6 0.6 0 1-0.4 1-1s-0.4-1-1-1c-3.6 0-6.6 3-6.3 6.8-2.8 0-4.8-2.7-4.1-5.3 1.2 0.3 2.5 0.2 3.7-0.1 0.5-0.1 0.9-0.7 0.8-1.2-0.1-0.5-0.7-0.9-1.2-0.8-6.3 1.4-7.7-6.6-0.7-8.2 0.5-0.1 0.9-0.7 0.8-1.2-0.1-0.5-0.6-0.9-1.2-0.8-2.1 0.5-3.3 1.1-4 1.7-2-1.9-1.6-5.4 0.8-6.8-0.1 0.9 0.1 1.9 0.7 2.9 0.6 1.2 2.4 0.2 1.8-0.9-1.6-3.1 0.1-6.1 2.7-6.7-0.2 3.7 2.8 6.6 6.3 6.6 0.6 0 1-0.4 1-1s-0.4-1-1-1c-2.9 0-5.2-2.9-3.9-6 1.8-4.1 8.2-3 8.2 1.7v26.6zM50.6 31c-0.7-0.5-1.9-1.2-4-1.7-0.5-0.1-1.1 0.2-1.2 0.8-0.1 0.5 0.2 1.1 0.8 1.2 1.2 0.3 2.8 0.8 3.6 1.7 1.6 1.9 1.3 4.9-0.9 6.4-0.1 0.1-1.2 0.6-3.4 0.1-0.5-0.1-1.1 0.2-1.2 0.8-0.1 0.5 0.2 1.1 0.8 1.2 1.5 0.3 2.8 0.3 3.7 0.1 0.7 2.6-1.3 5.3-4.1 5.3 0.3-3.7-2.7-6.8-6.3-6.8-0.6 0-1 0.4-1 1s0.4 1 1 1c2.4 0 4.3 1.9 4.3 4.3 0 5.7-8.6 5.7-8.6 0V19.7c0-5.7 8.6-5.6 8.6 0 0 2.4-1.9 4.3-4.3 4.3-0.6 0-1 0.4-1 1s0.4 1 1 1c3.5 0 6.5-2.9 6.3-6.6 2.7 0.6 4.3 3.7 2.7 6.7-0.3 0.5-0.1 1.1 0.4 1.4 0.1 0.1 0.3 0.1 0.5 0.1 0.4 0 0.7-0.2 0.9-0.5 0.5-1 0.7-2 0.8-2.8 2.2 1.3 2.6 4.8 0.6 6.7z" fill="#332885" data-fill-palette-color="accent"></path><path d="M40.6 35.9c-0.6-0.7-1.9-1.6-4.1-2.1-0.5-0.1-1.1 0.2-1.2 0.7-0.1 0.5 0.2 1.1 0.7 1.2 2.6 0.7 3.4 1.9 3.4 1.9 0.2 0.5 0.9 0.7 1.3 0.4 2.1-1.1 3.1-0.2 3.2-0.2 0.4 0.4 1 0.4 1.4 0 0.4-0.4 0.4-1 0-1.4-0.1-0.1-1.7-1.7-4.7-0.5zM41 33.3c0.7 0 1.1-0.6 1-1.2-0.3-1.3 0.7-1.9 0.9-2 0.5-0.2 0.7-0.8 0.5-1.3-0.2-0.5-0.8-0.7-1.3-0.5-0.9 0.4-2.5 1.9-2 4.2 0 0.5 0.4 0.8 0.9 0.8z" fill="#332885" data-fill-palette-color="accent"></path></svg></g></svg></g></svg></g></svg><rect width="395.52" height="60.695336808577146" fill="none" stroke="none" visibility="hidden"></rect></g><defs></defs></svg>